<mxfile host="65bd71144e">
    <diagram id="C5RBs43oDa-KdzZeNtuy" name="Page-1">
        <mxGraphModel dx="2213" dy="779" grid="1" gridSize="10" guides="1" tooltips="1" connect="1" arrows="1" fold="1" page="1" pageScale="1" pageWidth="827" pageHeight="1169" math="0" shadow="0">
            <root>
                <mxCell id="WIyWlLk6GJQsqaUBKTNV-0"/>
                <mxCell id="WIyWlLk6GJQsqaUBKTNV-1" parent="WIyWlLk6GJQsqaUBKTNV-0"/>
                <mxCell id="M7CGMbNuYNeq0SnUNNgH-6" value="ทบทวนสัญลักษณ์" style="swimlane;fontFamily=Sarabun;fontSource=https%3A%2F%2Ffonts.googleapis.com%2Fcss%3Ffamily%3DSarabun;" parent="WIyWlLk6GJQsqaUBKTNV-1" vertex="1">
                    <mxGeometry x="-720" y="20" width="640" height="290" as="geometry"/>
                </mxCell>
                <mxCell id="M7CGMbNuYNeq0SnUNNgH-2" value="&lt;font data-font-src=&quot;https://fonts.googleapis.com/css?family=Sarabun&quot; face=&quot;Sarabun&quot;&gt;เริ่มต้น&lt;/font&gt;" style="ellipse;whiteSpace=wrap;html=1;" parent="M7CGMbNuYNeq0SnUNNgH-6" vertex="1">
                    <mxGeometry x="20" y="40" width="130" height="30" as="geometry"/>
                </mxCell>
                <mxCell id="M7CGMbNuYNeq0SnUNNgH-5" value="" style="endArrow=classic;html=1;rounded=0;" parent="M7CGMbNuYNeq0SnUNNgH-6" edge="1">
                    <mxGeometry width="50" height="50" relative="1" as="geometry">
                        <mxPoint x="84.5" y="70" as="sourcePoint"/>
                        <mxPoint x="84.5" y="120" as="targetPoint"/>
                    </mxGeometry>
                </mxCell>
                <mxCell id="M7CGMbNuYNeq0SnUNNgH-3" value="&lt;font face=&quot;Sarabun&quot;&gt;สิ้นสุด&lt;/font&gt;" style="ellipse;whiteSpace=wrap;html=1;" parent="M7CGMbNuYNeq0SnUNNgH-6" vertex="1">
                    <mxGeometry x="150" y="90" width="130" height="30" as="geometry"/>
                </mxCell>
                <mxCell id="M7CGMbNuYNeq0SnUNNgH-4" value="" style="endArrow=classic;html=1;rounded=0;" parent="M7CGMbNuYNeq0SnUNNgH-6" edge="1">
                    <mxGeometry width="50" height="50" relative="1" as="geometry">
                        <mxPoint x="214.5" y="40" as="sourcePoint"/>
                        <mxPoint x="214.5" y="90" as="targetPoint"/>
                    </mxGeometry>
                </mxCell>
                <mxCell id="mvioNwK95yMqdUQ73LqQ-0" value="กระบวนการ" style="rounded=0;whiteSpace=wrap;html=1;fontFamily=Sarabun;fontSource=https%3A%2F%2Ffonts.googleapis.com%2Fcss%3Ffamily%3DSarabun;" parent="M7CGMbNuYNeq0SnUNNgH-6" vertex="1">
                    <mxGeometry x="320" y="70" width="120" height="30" as="geometry"/>
                </mxCell>
                <mxCell id="mvioNwK95yMqdUQ73LqQ-1" value="" style="endArrow=classic;html=1;rounded=0;" parent="M7CGMbNuYNeq0SnUNNgH-6" edge="1">
                    <mxGeometry width="50" height="50" relative="1" as="geometry">
                        <mxPoint x="379" y="40" as="sourcePoint"/>
                        <mxPoint x="379.5" y="70" as="targetPoint"/>
                    </mxGeometry>
                </mxCell>
                <mxCell id="mvioNwK95yMqdUQ73LqQ-2" value="" style="endArrow=classic;html=1;rounded=0;" parent="M7CGMbNuYNeq0SnUNNgH-6" edge="1">
                    <mxGeometry width="50" height="50" relative="1" as="geometry">
                        <mxPoint x="379.75" y="100" as="sourcePoint"/>
                        <mxPoint x="380.25" y="130" as="targetPoint"/>
                    </mxGeometry>
                </mxCell>
                <mxCell id="mvioNwK95yMqdUQ73LqQ-3" value="ประโยคเงื่อนไข" style="rhombus;whiteSpace=wrap;html=1;fontFamily=Sarabun;fontSource=https%3A%2F%2Ffonts.googleapis.com%2Fcss%3Ffamily%3DSarabun;" parent="M7CGMbNuYNeq0SnUNNgH-6" vertex="1">
                    <mxGeometry x="490" y="60" width="100" height="60" as="geometry"/>
                </mxCell>
                <mxCell id="mvioNwK95yMqdUQ73LqQ-4" value="" style="endArrow=classic;html=1;rounded=0;" parent="M7CGMbNuYNeq0SnUNNgH-6" edge="1">
                    <mxGeometry width="50" height="50" relative="1" as="geometry">
                        <mxPoint x="539.71" y="30" as="sourcePoint"/>
                        <mxPoint x="540.21" y="60" as="targetPoint"/>
                    </mxGeometry>
                </mxCell>
                <mxCell id="mvioNwK95yMqdUQ73LqQ-5" value="" style="endArrow=classic;html=1;rounded=0;" parent="M7CGMbNuYNeq0SnUNNgH-6" edge="1">
                    <mxGeometry width="50" height="50" relative="1" as="geometry">
                        <mxPoint x="539.71" y="120" as="sourcePoint"/>
                        <mxPoint x="540" y="175" as="targetPoint"/>
                    </mxGeometry>
                </mxCell>
                <mxCell id="mvioNwK95yMqdUQ73LqQ-7" value="จริง" style="edgeLabel;html=1;align=center;verticalAlign=middle;resizable=0;points=[];fontFamily=Sarabun;fontSource=https%3A%2F%2Ffonts.googleapis.com%2Fcss%3Ffamily%3DSarabun;" parent="mvioNwK95yMqdUQ73LqQ-5" vertex="1" connectable="0">
                    <mxGeometry x="-0.4142" y="-1" relative="1" as="geometry">
                        <mxPoint as="offset"/>
                    </mxGeometry>
                </mxCell>
                <mxCell id="mvioNwK95yMqdUQ73LqQ-6" value="" style="endArrow=classic;html=1;rounded=0;exitX=1;exitY=0.5;exitDx=0;exitDy=0;" parent="M7CGMbNuYNeq0SnUNNgH-6" source="mvioNwK95yMqdUQ73LqQ-3" edge="1">
                    <mxGeometry width="50" height="50" relative="1" as="geometry">
                        <mxPoint x="620" y="95" as="sourcePoint"/>
                        <mxPoint x="610" y="175" as="targetPoint"/>
                        <Array as="points">
                            <mxPoint x="610" y="90"/>
                        </Array>
                    </mxGeometry>
                </mxCell>
                <mxCell id="mvioNwK95yMqdUQ73LqQ-8" value="&lt;font data-font-src=&quot;https://fonts.googleapis.com/css?family=Sarabun&quot; face=&quot;Sarabun&quot;&gt;เท็จ&lt;/font&gt;" style="edgeLabel;html=1;align=center;verticalAlign=middle;resizable=0;points=[];" parent="mvioNwK95yMqdUQ73LqQ-6" vertex="1" connectable="0">
                    <mxGeometry x="-0.0019" y="-2" relative="1" as="geometry">
                        <mxPoint as="offset"/>
                    </mxGeometry>
                </mxCell>
                <mxCell id="mvioNwK95yMqdUQ73LqQ-9" value="&lt;font data-font-src=&quot;https://fonts.googleapis.com/css?family=Sarabun&quot; face=&quot;Sarabun&quot;&gt;ฟังก์ชัน/โมดูล&lt;/font&gt;" style="shape=process;whiteSpace=wrap;html=1;backgroundOutline=1;" parent="M7CGMbNuYNeq0SnUNNgH-6" vertex="1">
                    <mxGeometry x="25" y="180" width="120" height="30" as="geometry"/>
                </mxCell>
                <mxCell id="mvioNwK95yMqdUQ73LqQ-11" value="" style="endArrow=classic;html=1;rounded=0;" parent="M7CGMbNuYNeq0SnUNNgH-6" edge="1">
                    <mxGeometry width="50" height="50" relative="1" as="geometry">
                        <mxPoint x="84.70999999999998" y="150" as="sourcePoint"/>
                        <mxPoint x="85.20999999999998" y="180" as="targetPoint"/>
                    </mxGeometry>
                </mxCell>
                <mxCell id="mvioNwK95yMqdUQ73LqQ-12" value="" style="endArrow=classic;html=1;rounded=0;" parent="M7CGMbNuYNeq0SnUNNgH-6" edge="1">
                    <mxGeometry width="50" height="50" relative="1" as="geometry">
                        <mxPoint x="84.70999999999998" y="210" as="sourcePoint"/>
                        <mxPoint x="85.20999999999998" y="240" as="targetPoint"/>
                    </mxGeometry>
                </mxCell>
                <mxCell id="mvioNwK95yMqdUQ73LqQ-13" value="" style="strokeWidth=2;html=1;shape=mxgraph.flowchart.start_2;whiteSpace=wrap;" parent="M7CGMbNuYNeq0SnUNNgH-6" vertex="1">
                    <mxGeometry x="205" y="185" width="20" height="20" as="geometry"/>
                </mxCell>
                <mxCell id="mvioNwK95yMqdUQ73LqQ-16" value="" style="endArrow=classic;html=1;rounded=0;" parent="M7CGMbNuYNeq0SnUNNgH-6" edge="1">
                    <mxGeometry width="50" height="50" relative="1" as="geometry">
                        <mxPoint x="214.70999999999998" y="155" as="sourcePoint"/>
                        <mxPoint x="215.20999999999998" y="185" as="targetPoint"/>
                    </mxGeometry>
                </mxCell>
                <mxCell id="mvioNwK95yMqdUQ73LqQ-17" value="" style="endArrow=classic;html=1;rounded=0;entryX=0;entryY=0.5;entryDx=0;entryDy=0;entryPerimeter=0;" parent="M7CGMbNuYNeq0SnUNNgH-6" target="mvioNwK95yMqdUQ73LqQ-13" edge="1">
                    <mxGeometry width="50" height="50" relative="1" as="geometry">
                        <mxPoint x="189.99999999999997" y="155" as="sourcePoint"/>
                        <mxPoint x="190.49999999999997" y="185" as="targetPoint"/>
                        <Array as="points">
                            <mxPoint x="190" y="180"/>
                        </Array>
                    </mxGeometry>
                </mxCell>
                <mxCell id="mvioNwK95yMqdUQ73LqQ-18" value="" style="endArrow=classic;html=1;rounded=0;entryX=1;entryY=0.5;entryDx=0;entryDy=0;entryPerimeter=0;" parent="M7CGMbNuYNeq0SnUNNgH-6" target="mvioNwK95yMqdUQ73LqQ-13" edge="1">
                    <mxGeometry width="50" height="50" relative="1" as="geometry">
                        <mxPoint x="239.99999999999997" y="155" as="sourcePoint"/>
                        <mxPoint x="240.49999999999997" y="185" as="targetPoint"/>
                        <Array as="points">
                            <mxPoint x="240" y="180"/>
                        </Array>
                    </mxGeometry>
                </mxCell>
                <mxCell id="mvioNwK95yMqdUQ73LqQ-19" value="" style="endArrow=classic;html=1;rounded=0;" parent="M7CGMbNuYNeq0SnUNNgH-6" edge="1">
                    <mxGeometry width="50" height="50" relative="1" as="geometry">
                        <mxPoint x="214.70999999999998" y="205" as="sourcePoint"/>
                        <mxPoint x="215.20999999999998" y="235" as="targetPoint"/>
                    </mxGeometry>
                </mxCell>
                <mxCell id="mvioNwK95yMqdUQ73LqQ-20" value="&lt;font data-font-src=&quot;https://fonts.googleapis.com/css?family=Sarabun&quot; face=&quot;Sarabun&quot;&gt;ตัวเชื่อม&lt;/font&gt;" style="text;html=1;align=center;verticalAlign=middle;resizable=0;points=[];autosize=1;strokeColor=none;fillColor=none;" parent="M7CGMbNuYNeq0SnUNNgH-6" vertex="1">
                    <mxGeometry x="220" y="190" width="60" height="30" as="geometry"/>
                </mxCell>
                <mxCell id="mvioNwK95yMqdUQ73LqQ-25" value="" style="endArrow=classic;html=1;rounded=0;" parent="M7CGMbNuYNeq0SnUNNgH-6" edge="1">
                    <mxGeometry width="50" height="50" relative="1" as="geometry">
                        <mxPoint x="353.71" y="165" as="sourcePoint"/>
                        <mxPoint x="354.21" y="195" as="targetPoint"/>
                    </mxGeometry>
                </mxCell>
                <mxCell id="mvioNwK95yMqdUQ73LqQ-21" value="" style="verticalLabelPosition=bottom;verticalAlign=top;html=1;shape=offPageConnector;rounded=0;size=0.5;" parent="M7CGMbNuYNeq0SnUNNgH-6" vertex="1">
                    <mxGeometry x="339" y="195" width="30" height="30" as="geometry"/>
                </mxCell>
                <mxCell id="mvioNwK95yMqdUQ73LqQ-26" value="" style="endArrow=classic;html=1;rounded=0;" parent="M7CGMbNuYNeq0SnUNNgH-6" edge="1">
                    <mxGeometry width="50" height="50" relative="1" as="geometry">
                        <mxPoint x="405.71" y="195" as="sourcePoint"/>
                        <mxPoint x="406.21" y="225" as="targetPoint"/>
                    </mxGeometry>
                </mxCell>
                <mxCell id="mvioNwK95yMqdUQ73LqQ-27" value="" style="verticalLabelPosition=bottom;verticalAlign=top;html=1;shape=offPageConnector;rounded=0;size=0.5;" parent="M7CGMbNuYNeq0SnUNNgH-6" vertex="1">
                    <mxGeometry x="391" y="165" width="30" height="30" as="geometry"/>
                </mxCell>
                <mxCell id="mvioNwK95yMqdUQ73LqQ-28" value="หน้าต่อไป" style="text;html=1;align=center;verticalAlign=middle;resizable=0;points=[];autosize=1;strokeColor=none;fillColor=none;fontFamily=Sarabun;fontSource=https%3A%2F%2Ffonts.googleapis.com%2Fcss%3Ffamily%3DSarabun;" parent="M7CGMbNuYNeq0SnUNNgH-6" vertex="1">
                    <mxGeometry x="345" y="220" width="70" height="30" as="geometry"/>
                </mxCell>
                <mxCell id="mvioNwK95yMqdUQ73LqQ-29" value="ก" style="text;html=1;align=center;verticalAlign=middle;resizable=0;points=[];autosize=1;strokeColor=none;fillColor=none;fontFamily=Sarabun;fontSource=https%3A%2F%2Ffonts.googleapis.com%2Fcss%3Ffamily%3DSarabun;" parent="M7CGMbNuYNeq0SnUNNgH-6" vertex="1">
                    <mxGeometry x="339" y="190" width="30" height="30" as="geometry"/>
                </mxCell>
                <mxCell id="mvioNwK95yMqdUQ73LqQ-30" value="ก" style="text;html=1;align=center;verticalAlign=middle;resizable=0;points=[];autosize=1;strokeColor=none;fillColor=none;fontFamily=Sarabun;fontSource=https%3A%2F%2Ffonts.googleapis.com%2Fcss%3Ffamily%3DSarabun;" parent="M7CGMbNuYNeq0SnUNNgH-6" vertex="1">
                    <mxGeometry x="391" y="160" width="30" height="30" as="geometry"/>
                </mxCell>
                <mxCell id="mvioNwK95yMqdUQ73LqQ-32" value="แสดงผล/รับค่า" style="shape=parallelogram;perimeter=parallelogramPerimeter;whiteSpace=wrap;html=1;fixedSize=1;fontFamily=Sarabun;fontSource=https%3A%2F%2Ffonts.googleapis.com%2Fcss%3Ffamily%3DSarabun;" parent="M7CGMbNuYNeq0SnUNNgH-6" vertex="1">
                    <mxGeometry x="450" y="210" width="120" height="30" as="geometry"/>
                </mxCell>
                <mxCell id="mvioNwK95yMqdUQ73LqQ-33" value="" style="endArrow=classic;html=1;rounded=0;" parent="M7CGMbNuYNeq0SnUNNgH-6" edge="1">
                    <mxGeometry width="50" height="50" relative="1" as="geometry">
                        <mxPoint x="509.71" y="180" as="sourcePoint"/>
                        <mxPoint x="510.21" y="210" as="targetPoint"/>
                    </mxGeometry>
                </mxCell>
                <mxCell id="mvioNwK95yMqdUQ73LqQ-34" value="" style="endArrow=classic;html=1;rounded=0;" parent="M7CGMbNuYNeq0SnUNNgH-6" edge="1">
                    <mxGeometry width="50" height="50" relative="1" as="geometry">
                        <mxPoint x="509.71" y="240" as="sourcePoint"/>
                        <mxPoint x="510.21" y="270" as="targetPoint"/>
                    </mxGeometry>
                </mxCell>
                <mxCell id="mvioNwK95yMqdUQ73LqQ-36" value="แก้ไขโจทย์ปัญหา" style="swimlane;fontFamily=Sarabun;fontSource=https%3A%2F%2Ffonts.googleapis.com%2Fcss%3Ffamily%3DSarabun;" parent="WIyWlLk6GJQsqaUBKTNV-1" vertex="1">
                    <mxGeometry x="-720" y="620" width="640" height="1730" as="geometry"/>
                </mxCell>
                <mxCell id="mvioNwK95yMqdUQ73LqQ-35" value="&lt;font data-font-src=&quot;https://fonts.googleapis.com/css?family=Sarabun&quot; face=&quot;Sarabun&quot;&gt;เริ่มต้น&lt;/font&gt;" style="ellipse;whiteSpace=wrap;html=1;" parent="mvioNwK95yMqdUQ73LqQ-36" vertex="1">
                    <mxGeometry x="255" y="40" width="130" height="30" as="geometry"/>
                </mxCell>
                <mxCell id="26" style="edgeStyle=none;html=1;entryX=0.5;entryY=0;entryDx=0;entryDy=0;" edge="1" parent="mvioNwK95yMqdUQ73LqQ-36" source="24" target="25">
                    <mxGeometry relative="1" as="geometry"/>
                </mxCell>
                <mxCell id="24" value="แสดงผลรายการสินค้า" style="shape=parallelogram;perimeter=parallelogramPerimeter;whiteSpace=wrap;html=1;fixedSize=1;fontFamily=Sarabun;fontSource=https%3A%2F%2Ffonts.googleapis.com%2Fcss%3Ffamily%3DSarabun;" vertex="1" parent="mvioNwK95yMqdUQ73LqQ-36">
                    <mxGeometry x="240" y="180" width="160" height="60" as="geometry"/>
                </mxCell>
                <mxCell id="28" style="edgeStyle=none;html=1;entryX=0.5;entryY=0;entryDx=0;entryDy=0;" edge="1" parent="mvioNwK95yMqdUQ73LqQ-36" source="25" target="27">
                    <mxGeometry relative="1" as="geometry"/>
                </mxCell>
                <mxCell id="25" value="รับค่ามาจากลูกค้า" style="shape=parallelogram;perimeter=parallelogramPerimeter;whiteSpace=wrap;html=1;fixedSize=1;fontFamily=Sarabun;fontSource=https%3A%2F%2Ffonts.googleapis.com%2Fcss%3Ffamily%3DSarabun;" vertex="1" parent="mvioNwK95yMqdUQ73LqQ-36">
                    <mxGeometry x="240" y="280" width="160" height="60" as="geometry"/>
                </mxCell>
                <mxCell id="107" style="edgeStyle=none;html=1;entryX=0.5;entryY=0;entryDx=0;entryDy=0;" edge="1" parent="mvioNwK95yMqdUQ73LqQ-36" source="27" target="96">
                    <mxGeometry relative="1" as="geometry"/>
                </mxCell>
                <mxCell id="27" value="ประมวลผลว่ามีสินค้าหรือไม่" style="rhombus;whiteSpace=wrap;html=1;fontFamily=Sarabun;fontSource=https%3A%2F%2Ffonts.googleapis.com%2Fcss%3Ffamily%3DSarabun;" vertex="1" parent="mvioNwK95yMqdUQ73LqQ-36">
                    <mxGeometry x="231.25" y="370" width="177.5" height="100" as="geometry"/>
                </mxCell>
                <mxCell id="30" value="แสดงว่า&lt;br&gt;&quot;ไม่มีสินค้า&quot;" style="shape=parallelogram;perimeter=parallelogramPerimeter;whiteSpace=wrap;html=1;fixedSize=1;fontFamily=Sarabun;fontSource=https%3A%2F%2Ffonts.googleapis.com%2Fcss%3Ffamily%3DSarabun;" vertex="1" parent="mvioNwK95yMqdUQ73LqQ-36">
                    <mxGeometry x="510" y="457.5" width="110" height="55" as="geometry"/>
                </mxCell>
                <mxCell id="41" value="ใช่" style="text;html=1;align=center;verticalAlign=middle;resizable=0;points=[];autosize=1;strokeColor=none;fillColor=none;" vertex="1" parent="mvioNwK95yMqdUQ73LqQ-36">
                    <mxGeometry x="400" y="430" width="40" height="30" as="geometry"/>
                </mxCell>
                <mxCell id="35" style="edgeStyle=none;html=1;entryX=0.5;entryY=0;entryDx=0;entryDy=0;" edge="1" parent="mvioNwK95yMqdUQ73LqQ-36" target="34">
                    <mxGeometry relative="1" as="geometry">
                        <mxPoint x="320" y="711" as="sourcePoint"/>
                    </mxGeometry>
                </mxCell>
                <mxCell id="37" style="edgeStyle=none;html=1;entryX=0.5;entryY=0;entryDx=0;entryDy=0;" edge="1" parent="mvioNwK95yMqdUQ73LqQ-36" source="34" target="36">
                    <mxGeometry relative="1" as="geometry"/>
                </mxCell>
                <mxCell id="34" value="แสดงบนหน้าจอว่า &lt;br&gt;&quot;ต้องชำระเงิน&lt;br&gt;จำนวณ X บาท&quot;" style="shape=parallelogram;perimeter=parallelogramPerimeter;whiteSpace=wrap;html=1;fixedSize=1;fontFamily=Sarabun;fontSource=https%3A%2F%2Ffonts.googleapis.com%2Fcss%3Ffamily%3DSarabun;" vertex="1" parent="mvioNwK95yMqdUQ73LqQ-36">
                    <mxGeometry x="240" y="731" width="160" height="80" as="geometry"/>
                </mxCell>
                <mxCell id="39" style="edgeStyle=none;html=1;entryX=0.5;entryY=0;entryDx=0;entryDy=0;" edge="1" parent="mvioNwK95yMqdUQ73LqQ-36" source="36" target="38">
                    <mxGeometry relative="1" as="geometry"/>
                </mxCell>
                <mxCell id="36" value="&lt;font data-font-src=&quot;https://fonts.googleapis.com/css?family=Sarabun&quot; face=&quot;Sarabun&quot;&gt;มีให้เลือกว่าจะใช้ &lt;br&gt;เงินสด/แสกนจ่าย&lt;/font&gt;" style="shape=process;whiteSpace=wrap;html=1;backgroundOutline=1;" vertex="1" parent="mvioNwK95yMqdUQ73LqQ-36">
                    <mxGeometry x="221.25" y="830" width="197.5" height="61" as="geometry"/>
                </mxCell>
                <mxCell id="44" style="edgeStyle=none;html=1;entryX=0;entryY=0.5;entryDx=0;entryDy=0;" edge="1" parent="mvioNwK95yMqdUQ73LqQ-36" source="38" target="43">
                    <mxGeometry relative="1" as="geometry"/>
                </mxCell>
                <mxCell id="46" style="edgeStyle=none;html=1;entryX=1;entryY=0.5;entryDx=0;entryDy=0;" edge="1" parent="mvioNwK95yMqdUQ73LqQ-36" source="38" target="45">
                    <mxGeometry relative="1" as="geometry"/>
                </mxCell>
                <mxCell id="38" value="รับผลมาเป็น&lt;br&gt;ธุรกรรมออนไลน์&lt;br&gt;หรือไม่" style="rhombus;whiteSpace=wrap;html=1;fontFamily=Sarabun;fontSource=https%3A%2F%2Ffonts.googleapis.com%2Fcss%3Ffamily%3DSarabun;" vertex="1" parent="mvioNwK95yMqdUQ73LqQ-36">
                    <mxGeometry x="250" y="910" width="140" height="80" as="geometry"/>
                </mxCell>
                <mxCell id="50" style="edgeStyle=none;html=1;entryX=0.5;entryY=0;entryDx=0;entryDy=0;" edge="1" parent="mvioNwK95yMqdUQ73LqQ-36" source="43" target="49">
                    <mxGeometry relative="1" as="geometry"/>
                </mxCell>
                <mxCell id="43" value="แสกนจ่าย" style="rounded=0;whiteSpace=wrap;html=1;fontFamily=Sarabun;fontSource=https%3A%2F%2Ffonts.googleapis.com%2Fcss%3Ffamily%3DSarabun;" vertex="1" parent="mvioNwK95yMqdUQ73LqQ-36">
                    <mxGeometry x="418.75" y="936" width="120" height="30" as="geometry"/>
                </mxCell>
                <mxCell id="48" style="edgeStyle=none;html=1;entryX=0.5;entryY=0;entryDx=0;entryDy=0;" edge="1" parent="mvioNwK95yMqdUQ73LqQ-36" source="45" target="47">
                    <mxGeometry relative="1" as="geometry"/>
                </mxCell>
                <mxCell id="45" value="ใช้เงินสด" style="rounded=0;whiteSpace=wrap;html=1;fontFamily=Sarabun;fontSource=https%3A%2F%2Ffonts.googleapis.com%2Fcss%3Ffamily%3DSarabun;" vertex="1" parent="mvioNwK95yMqdUQ73LqQ-36">
                    <mxGeometry x="101.25" y="936" width="120" height="30" as="geometry"/>
                </mxCell>
                <mxCell id="55" style="edgeStyle=none;html=1;entryX=0.5;entryY=0;entryDx=0;entryDy=0;" edge="1" parent="mvioNwK95yMqdUQ73LqQ-36" source="47" target="54">
                    <mxGeometry relative="1" as="geometry"/>
                </mxCell>
                <mxCell id="47" value="รับค่ามาจากลูกค้า" style="shape=parallelogram;perimeter=parallelogramPerimeter;whiteSpace=wrap;html=1;fixedSize=1;fontFamily=Sarabun;fontSource=https%3A%2F%2Ffonts.googleapis.com%2Fcss%3Ffamily%3DSarabun;" vertex="1" parent="mvioNwK95yMqdUQ73LqQ-36">
                    <mxGeometry x="96.25" y="1011" width="130" height="50" as="geometry"/>
                </mxCell>
                <mxCell id="49" value="รับค่ามาจากลูกค้า" style="shape=parallelogram;perimeter=parallelogramPerimeter;whiteSpace=wrap;html=1;fixedSize=1;fontFamily=Sarabun;fontSource=https%3A%2F%2Ffonts.googleapis.com%2Fcss%3Ffamily%3DSarabun;" vertex="1" parent="mvioNwK95yMqdUQ73LqQ-36">
                    <mxGeometry x="413.75" y="1011" width="130" height="50" as="geometry"/>
                </mxCell>
                <mxCell id="59" style="edgeStyle=none;html=1;entryX=0;entryY=0.5;entryDx=0;entryDy=0;" edge="1" parent="mvioNwK95yMqdUQ73LqQ-36" source="54" target="57">
                    <mxGeometry relative="1" as="geometry"/>
                </mxCell>
                <mxCell id="54" value="เงินพอหรือไม่" style="rhombus;whiteSpace=wrap;html=1;fontFamily=Sarabun;fontSource=https%3A%2F%2Ffonts.googleapis.com%2Fcss%3Ffamily%3DSarabun;" vertex="1" parent="mvioNwK95yMqdUQ73LqQ-36">
                    <mxGeometry x="111.25" y="1091" width="100" height="60" as="geometry"/>
                </mxCell>
                <mxCell id="57" value="ไม่พอให้ใส่เงินเพิ่ม" style="shape=parallelogram;perimeter=parallelogramPerimeter;whiteSpace=wrap;html=1;fixedSize=1;fontFamily=Sarabun;fontSource=https%3A%2F%2Ffonts.googleapis.com%2Fcss%3Ffamily%3DSarabun;" vertex="1" parent="mvioNwK95yMqdUQ73LqQ-36">
                    <mxGeometry x="247" y="1106" width="120" height="30" as="geometry"/>
                </mxCell>
                <mxCell id="81" style="edgeStyle=none;html=1;entryX=0.5;entryY=0;entryDx=0;entryDy=0;" edge="1" parent="mvioNwK95yMqdUQ73LqQ-36" source="58" target="74">
                    <mxGeometry relative="1" as="geometry"/>
                </mxCell>
                <mxCell id="58" value="" style="strokeWidth=2;html=1;shape=mxgraph.flowchart.start_2;whiteSpace=wrap;" vertex="1" parent="mvioNwK95yMqdUQ73LqQ-36">
                    <mxGeometry x="220" y="1231" width="20" height="20" as="geometry"/>
                </mxCell>
                <mxCell id="60" value="ไม่" style="text;html=1;align=center;verticalAlign=middle;resizable=0;points=[];autosize=1;strokeColor=none;fillColor=none;" vertex="1" parent="mvioNwK95yMqdUQ73LqQ-36">
                    <mxGeometry x="207" y="1091" width="40" height="30" as="geometry"/>
                </mxCell>
                <mxCell id="61" style="edgeStyle=none;html=1;entryX=1;entryY=0.5;entryDx=0;entryDy=0;entryPerimeter=0;" edge="1" parent="mvioNwK95yMqdUQ73LqQ-36" source="57" target="58">
                    <mxGeometry relative="1" as="geometry">
                        <Array as="points">
                            <mxPoint x="307" y="1241"/>
                        </Array>
                    </mxGeometry>
                </mxCell>
                <mxCell id="63" style="edgeStyle=none;html=1;entryX=0;entryY=0.5;entryDx=0;entryDy=0;entryPerimeter=0;" edge="1" parent="mvioNwK95yMqdUQ73LqQ-36" source="54" target="58">
                    <mxGeometry relative="1" as="geometry">
                        <Array as="points">
                            <mxPoint x="160" y="1241"/>
                        </Array>
                    </mxGeometry>
                </mxCell>
                <mxCell id="64" value="ใช่" style="text;html=1;align=center;verticalAlign=middle;resizable=0;points=[];autosize=1;strokeColor=none;fillColor=none;" vertex="1" parent="mvioNwK95yMqdUQ73LqQ-36">
                    <mxGeometry x="120" y="1161" width="40" height="30" as="geometry"/>
                </mxCell>
                <mxCell id="73" style="edgeStyle=none;html=1;entryX=0;entryY=0.5;entryDx=0;entryDy=0;" edge="1" parent="mvioNwK95yMqdUQ73LqQ-36" source="74" target="75">
                    <mxGeometry relative="1" as="geometry"/>
                </mxCell>
                <mxCell id="74" value="ต้องทอนเงินหรือไม่" style="rhombus;whiteSpace=wrap;html=1;fontFamily=Sarabun;fontSource=https%3A%2F%2Ffonts.googleapis.com%2Fcss%3Ffamily%3DSarabun;" vertex="1" parent="mvioNwK95yMqdUQ73LqQ-36">
                    <mxGeometry x="170.44" y="1276" width="119.13" height="70" as="geometry"/>
                </mxCell>
                <mxCell id="75" value="ทอนเงินให้ลูกค้า" style="shape=parallelogram;perimeter=parallelogramPerimeter;whiteSpace=wrap;html=1;fixedSize=1;fontFamily=Sarabun;fontSource=https%3A%2F%2Ffonts.googleapis.com%2Fcss%3Ffamily%3DSarabun;" vertex="1" parent="mvioNwK95yMqdUQ73LqQ-36">
                    <mxGeometry x="314.88" y="1296" width="120" height="30" as="geometry"/>
                </mxCell>
                <mxCell id="76" value="" style="strokeWidth=2;html=1;shape=mxgraph.flowchart.start_2;whiteSpace=wrap;" vertex="1" parent="mvioNwK95yMqdUQ73LqQ-36">
                    <mxGeometry x="255" y="1421" width="20" height="20" as="geometry"/>
                </mxCell>
                <mxCell id="77" value="ไม่" style="text;html=1;align=center;verticalAlign=middle;resizable=0;points=[];autosize=1;strokeColor=none;fillColor=none;" vertex="1" parent="mvioNwK95yMqdUQ73LqQ-36">
                    <mxGeometry x="191.25" y="1350" width="40" height="30" as="geometry"/>
                </mxCell>
                <mxCell id="78" style="edgeStyle=none;html=1;entryX=1;entryY=0.5;entryDx=0;entryDy=0;entryPerimeter=0;" edge="1" parent="mvioNwK95yMqdUQ73LqQ-36" source="75" target="76">
                    <mxGeometry relative="1" as="geometry">
                        <Array as="points">
                            <mxPoint x="374.88" y="1431"/>
                        </Array>
                    </mxGeometry>
                </mxCell>
                <mxCell id="79" style="edgeStyle=none;html=1;entryX=0;entryY=0.5;entryDx=0;entryDy=0;entryPerimeter=0;" edge="1" parent="mvioNwK95yMqdUQ73LqQ-36" source="74" target="76">
                    <mxGeometry relative="1" as="geometry">
                        <Array as="points">
                            <mxPoint x="230" y="1431"/>
                        </Array>
                    </mxGeometry>
                </mxCell>
                <mxCell id="80" value="ใช่" style="text;html=1;align=center;verticalAlign=middle;resizable=0;points=[];autosize=1;strokeColor=none;fillColor=none;" vertex="1" parent="mvioNwK95yMqdUQ73LqQ-36">
                    <mxGeometry x="280" y="1276" width="40" height="30" as="geometry"/>
                </mxCell>
                <mxCell id="mvioNwK95yMqdUQ73LqQ-69" value="&lt;font face=&quot;Sarabun&quot;&gt;สิ้นสุด&lt;/font&gt;" style="ellipse;whiteSpace=wrap;html=1;" parent="mvioNwK95yMqdUQ73LqQ-36" vertex="1">
                    <mxGeometry x="255" y="1680" width="130" height="30" as="geometry"/>
                </mxCell>
                <mxCell id="118" style="edgeStyle=none;html=1;entryX=0.5;entryY=0;entryDx=0;entryDy=0;" edge="1" parent="mvioNwK95yMqdUQ73LqQ-36" source="51" target="116">
                    <mxGeometry relative="1" as="geometry"/>
                </mxCell>
                <mxCell id="51" value="ส่งสินค้า ชิ้นที่ลูกค้าเลือก" style="rounded=0;whiteSpace=wrap;html=1;fontFamily=Sarabun;fontSource=https%3A%2F%2Ffonts.googleapis.com%2Fcss%3Ffamily%3DSarabun;" vertex="1" parent="mvioNwK95yMqdUQ73LqQ-36">
                    <mxGeometry x="255" y="1510" width="130" height="30" as="geometry"/>
                </mxCell>
                <mxCell id="86" style="edgeStyle=none;html=1;entryX=0.5;entryY=0;entryDx=0;entryDy=0;" edge="1" parent="mvioNwK95yMqdUQ73LqQ-36" source="52" target="51">
                    <mxGeometry relative="1" as="geometry"/>
                </mxCell>
                <mxCell id="52" value="" style="strokeWidth=2;html=1;shape=mxgraph.flowchart.start_2;whiteSpace=wrap;" vertex="1" parent="mvioNwK95yMqdUQ73LqQ-36">
                    <mxGeometry x="310" y="1470" width="20" height="20" as="geometry"/>
                </mxCell>
                <mxCell id="53" style="edgeStyle=none;html=1;entryX=1;entryY=0.5;entryDx=0;entryDy=0;entryPerimeter=0;" edge="1" parent="mvioNwK95yMqdUQ73LqQ-36" source="49" target="52">
                    <mxGeometry relative="1" as="geometry">
                        <Array as="points">
                            <mxPoint x="480" y="1480"/>
                        </Array>
                    </mxGeometry>
                </mxCell>
                <mxCell id="84" value="" style="edgeStyle=none;html=1;" edge="1" parent="mvioNwK95yMqdUQ73LqQ-36" source="82" target="34">
                    <mxGeometry relative="1" as="geometry"/>
                </mxCell>
                <mxCell id="82" value="ประมวล ราคาสินค้า&lt;br&gt;ที่เลือก" style="rounded=0;whiteSpace=wrap;html=1;fontFamily=Sarabun;fontSource=https%3A%2F%2Ffonts.googleapis.com%2Fcss%3Ffamily%3DSarabun;" vertex="1" parent="mvioNwK95yMqdUQ73LqQ-36">
                    <mxGeometry x="260" y="680" width="120" height="30" as="geometry"/>
                </mxCell>
                <mxCell id="40" value="ไม่" style="text;html=1;align=center;verticalAlign=middle;resizable=0;points=[];autosize=1;strokeColor=none;fillColor=none;" vertex="1" parent="mvioNwK95yMqdUQ73LqQ-36">
                    <mxGeometry x="270" y="465" width="40" height="30" as="geometry"/>
                </mxCell>
                <mxCell id="97" style="edgeStyle=none;html=1;entryX=0.5;entryY=0;entryDx=0;entryDy=0;" edge="1" parent="mvioNwK95yMqdUQ73LqQ-36" source="96" target="82">
                    <mxGeometry relative="1" as="geometry"/>
                </mxCell>
                <mxCell id="96" value="ประมวลผลว่าสินค้า&lt;br&gt;หมดอายุหรือไม่" style="rhombus;whiteSpace=wrap;html=1;fontFamily=Sarabun;fontSource=https%3A%2F%2Ffonts.googleapis.com%2Fcss%3Ffamily%3DSarabun;" vertex="1" parent="mvioNwK95yMqdUQ73LqQ-36">
                    <mxGeometry x="231.25" y="490" width="177.5" height="100" as="geometry"/>
                </mxCell>
                <mxCell id="99" value="ใช่" style="text;html=1;align=center;verticalAlign=middle;resizable=0;points=[];autosize=1;strokeColor=none;fillColor=none;" vertex="1" parent="mvioNwK95yMqdUQ73LqQ-36">
                    <mxGeometry x="400" y="512.5" width="40" height="30" as="geometry"/>
                </mxCell>
                <mxCell id="106" style="edgeStyle=none;html=1;entryX=0;entryY=0.5;entryDx=0;entryDy=0;" edge="1" parent="mvioNwK95yMqdUQ73LqQ-36" source="100" target="30">
                    <mxGeometry relative="1" as="geometry"/>
                </mxCell>
                <mxCell id="100" value="" style="strokeWidth=2;html=1;shape=mxgraph.flowchart.start_2;whiteSpace=wrap;" vertex="1" parent="mvioNwK95yMqdUQ73LqQ-36">
                    <mxGeometry x="433.75" y="475" width="20" height="20" as="geometry"/>
                </mxCell>
                <mxCell id="103" style="edgeStyle=none;html=1;entryX=0.5;entryY=0;entryDx=0;entryDy=0;entryPerimeter=0;" edge="1" parent="mvioNwK95yMqdUQ73LqQ-36" source="27" target="100">
                    <mxGeometry relative="1" as="geometry">
                        <Array as="points">
                            <mxPoint x="444" y="420"/>
                        </Array>
                    </mxGeometry>
                </mxCell>
                <mxCell id="104" style="edgeStyle=none;html=1;entryX=0.5;entryY=1;entryDx=0;entryDy=0;entryPerimeter=0;" edge="1" parent="mvioNwK95yMqdUQ73LqQ-36" source="96" target="100">
                    <mxGeometry relative="1" as="geometry">
                        <Array as="points">
                            <mxPoint x="444" y="540"/>
                        </Array>
                    </mxGeometry>
                </mxCell>
                <mxCell id="98" value="ไม่" style="text;html=1;align=center;verticalAlign=middle;resizable=0;points=[];autosize=1;strokeColor=none;fillColor=none;" vertex="1" parent="mvioNwK95yMqdUQ73LqQ-36">
                    <mxGeometry x="270" y="598" width="40" height="30" as="geometry"/>
                </mxCell>
                <mxCell id="111" style="edgeStyle=none;html=1;entryX=0.5;entryY=0;entryDx=0;entryDy=0;" edge="1" parent="mvioNwK95yMqdUQ73LqQ-36" source="108" target="24">
                    <mxGeometry relative="1" as="geometry"/>
                </mxCell>
                <mxCell id="108" value="" style="strokeWidth=2;html=1;shape=mxgraph.flowchart.start_2;whiteSpace=wrap;" vertex="1" parent="mvioNwK95yMqdUQ73LqQ-36">
                    <mxGeometry x="310" y="130" width="20" height="20" as="geometry"/>
                </mxCell>
                <mxCell id="109" style="edgeStyle=none;html=1;entryX=0.5;entryY=0;entryDx=0;entryDy=0;entryPerimeter=0;" edge="1" parent="mvioNwK95yMqdUQ73LqQ-36" source="mvioNwK95yMqdUQ73LqQ-35" target="108">
                    <mxGeometry relative="1" as="geometry"/>
                </mxCell>
                <mxCell id="110" style="edgeStyle=none;html=1;entryX=1;entryY=0.5;entryDx=0;entryDy=0;entryPerimeter=0;" edge="1" parent="mvioNwK95yMqdUQ73LqQ-36" source="30" target="108">
                    <mxGeometry relative="1" as="geometry">
                        <Array as="points">
                            <mxPoint x="560" y="140"/>
                        </Array>
                    </mxGeometry>
                </mxCell>
                <mxCell id="113" value="ไม่" style="text;html=1;align=center;verticalAlign=middle;resizable=0;points=[];autosize=1;strokeColor=none;fillColor=none;" vertex="1" parent="mvioNwK95yMqdUQ73LqQ-36">
                    <mxGeometry x="226.25" y="918" width="40" height="30" as="geometry"/>
                </mxCell>
                <mxCell id="114" style="edgeStyle=none;html=1;entryX=0;entryY=0.5;entryDx=0;entryDy=0;entryPerimeter=0;" edge="1" parent="mvioNwK95yMqdUQ73LqQ-36" source="76" target="52">
                    <mxGeometry relative="1" as="geometry">
                        <Array as="points">
                            <mxPoint x="265" y="1480"/>
                        </Array>
                    </mxGeometry>
                </mxCell>
                <mxCell id="119" style="edgeStyle=none;html=1;entryX=0.5;entryY=0;entryDx=0;entryDy=0;" edge="1" parent="mvioNwK95yMqdUQ73LqQ-36" source="116" target="117">
                    <mxGeometry relative="1" as="geometry"/>
                </mxCell>
                <mxCell id="116" value="ประมวล สินค้า&lt;br&gt;ที่เหลือ" style="rounded=0;whiteSpace=wrap;html=1;fontFamily=Sarabun;fontSource=https%3A%2F%2Ffonts.googleapis.com%2Fcss%3Ffamily%3DSarabun;" vertex="1" parent="mvioNwK95yMqdUQ73LqQ-36">
                    <mxGeometry x="260" y="1560" width="120" height="40" as="geometry"/>
                </mxCell>
                <mxCell id="120" style="edgeStyle=none;html=1;entryX=0.5;entryY=0;entryDx=0;entryDy=0;" edge="1" parent="mvioNwK95yMqdUQ73LqQ-36" source="117" target="mvioNwK95yMqdUQ73LqQ-69">
                    <mxGeometry relative="1" as="geometry"/>
                </mxCell>
                <mxCell id="117" value="ประมวล เงินที่&lt;br&gt;ที่เหลือ" style="rounded=0;whiteSpace=wrap;html=1;fontFamily=Sarabun;fontSource=https%3A%2F%2Ffonts.googleapis.com%2Fcss%3Ffamily%3DSarabun;" vertex="1" parent="mvioNwK95yMqdUQ73LqQ-36">
                    <mxGeometry x="260" y="1620" width="120" height="40" as="geometry"/>
                </mxCell>
                <mxCell id="mvioNwK95yMqdUQ73LqQ-70" value="&lt;font data-font-src=&quot;https://fonts.googleapis.com/css?family=Sarabun&quot; face=&quot;Sarabun&quot;&gt;โจทย์ปัญหา&lt;/font&gt;" style="swimlane;whiteSpace=wrap;html=1;" parent="WIyWlLk6GJQsqaUBKTNV-1" vertex="1">
                    <mxGeometry x="-720" y="320" width="640" height="240" as="geometry"/>
                </mxCell>
                <mxCell id="mvioNwK95yMqdUQ73LqQ-71" value="&lt;font data-font-src=&quot;https://fonts.googleapis.com/css?family=Sarabun&quot; face=&quot;Sarabun&quot; style=&quot;font-size: 14px;&quot;&gt;จงเขียน Flowchart เพื่อแสดงขั้นตอนการทำงาน ของเครื่องขายน้ำอัตโนมัติที่ชื่อว่า &quot;ตะพาบลอย&quot;&lt;br&gt;โดยจะต้องมีสินค้าดังนี้&lt;br&gt;&lt;u&gt;ประเภทน้ำ&lt;span style=&quot;white-space: pre;&quot;&gt;&#x9;&lt;/span&gt;&lt;span style=&quot;white-space: pre;&quot;&gt;&#x9;&lt;/span&gt;&lt;span style=&quot;white-space: pre;&quot;&gt;&#x9;&lt;/span&gt;&lt;span style=&quot;white-space: pre;&quot;&gt;&#x9;&lt;/span&gt;&lt;span style=&quot;white-space: pre;&quot;&gt;&#x9;&lt;/span&gt;&lt;span style=&quot;white-space: pre;&quot;&gt;&#x9;&lt;span style=&quot;white-space: pre;&quot;&gt;&#x9;&lt;/span&gt;ข&lt;/span&gt;นม&lt;/u&gt;&lt;br&gt;&lt;span style=&quot;white-space: pre;&quot;&gt;&#x9;&lt;/span&gt;- โค้ก กระป๋องละ 10 บาท&lt;span style=&quot;white-space: pre;&quot;&gt;&#x9;&lt;/span&gt;&lt;span style=&quot;white-space: pre;&quot;&gt;&#x9;&lt;/span&gt;&lt;span style=&quot;white-space: pre;&quot;&gt;&#x9;&lt;/span&gt;&lt;span style=&quot;white-space: pre;&quot;&gt;&#x9;&lt;/span&gt;- เมล็ดทานตะวัน 13 บาท&lt;br&gt;&lt;span style=&quot;white-space: pre;&quot;&gt;&#x9;&lt;/span&gt;- น้ำเขียว กระป๋องละ 12 บาท&lt;span style=&quot;white-space: pre;&quot;&gt;&#x9;&lt;/span&gt;&lt;span style=&quot;white-space: pre;&quot;&gt;&#x9;&lt;/span&gt;&lt;span style=&quot;white-space: pre;&quot;&gt;&#x9;&lt;/span&gt;- ถั่วแปบ 20 บาท&lt;br&gt;&lt;span style=&quot;white-space: pre;&quot;&gt;&#x9;&lt;/span&gt;- อเมริกาโน่ 30 บาท&lt;span style=&quot;white-space: pre;&quot;&gt;&#x9;&lt;/span&gt;&lt;span style=&quot;white-space: pre;&quot;&gt;&#x9;&lt;/span&gt;&lt;span style=&quot;white-space: pre;&quot;&gt;&#x9;&lt;/span&gt;&lt;span style=&quot;white-space: pre;&quot;&gt;&#x9;&lt;/span&gt;&lt;span style=&quot;white-space: pre;&quot;&gt;&#x9;&lt;/span&gt;- จิ้นส้มหมก 15 บาท&lt;br&gt;&lt;span style=&quot;white-space: pre;&quot;&gt;&#x9;&lt;/span&gt;- ลาเต้ หวานเจี๊ยบ 35 บาท&lt;span style=&quot;white-space: pre;&quot;&gt;&#x9;&lt;/span&gt;&lt;br&gt;&lt;br&gt;&lt;u&gt;สิ่งที่ระบบควรจะทำได้&lt;/u&gt;&lt;br&gt;&lt;span style=&quot;white-space: pre;&quot;&gt;&#x9;&lt;/span&gt;- ลูกค้าเลือกสินค้า, ระบบจะต้องรวมยอดขาย และรวมรายการสินค้าทั้งหมดที่ลูกค้าเลือก&lt;br&gt;&lt;span style=&quot;white-space: pre;&quot;&gt;&#x9;&lt;/span&gt;- สรุปยอดว่าเหลือเงินในตู้อีกเท่าไหร่ เหลือเหรียญอะไรบ้าง? ธนบัตรอะไรบ้าง? อย่างละเท่าไหร่?&lt;br&gt;&lt;br&gt;&lt;br&gt;&lt;/font&gt;" style="text;html=1;align=left;verticalAlign=middle;resizable=0;points=[];autosize=1;strokeColor=none;fillColor=none;fontSize=14;" parent="mvioNwK95yMqdUQ73LqQ-70" vertex="1">
                    <mxGeometry x="25" y="30" width="580" height="240" as="geometry"/>
                </mxCell>
                <mxCell id="112" value="ใช่" style="text;html=1;align=center;verticalAlign=middle;resizable=0;points=[];autosize=1;strokeColor=none;fillColor=none;" vertex="1" parent="WIyWlLk6GJQsqaUBKTNV-1">
                    <mxGeometry x="-350" y="1538" width="40" height="30" as="geometry"/>
                </mxCell>
            </root>
        </mxGraphModel>
    </diagram>
</mxfile>